<?xml version="1.0" encoding="UTF-8"?>
<svg id="Komponente_28_1" xmlns="http://www.w3.org/2000/svg" version="1.1" viewBox="0 0 40 40">
  <!-- Generator: Adobe Illustrator 29.7.1, SVG Export Plug-In . SVG Version: 2.1.1 Build 8)  -->
  <defs>
    <style>
      .st0 {
        fill: #002e57;
      }

      .st1 {
        fill: none;
        stroke: #fff;
      }
    </style>
  </defs>
  <g id="Gruppe_1057">
    <g id="Gruppe_1011">
      <circle id="Ellipse_15" class="st0" cx="20" cy="20" r="20"/>
    </g>
  </g>
  <g id="Gruppe_1095">
    <g id="Gruppe_1094">
      <g id="Gruppe_1093">
        <path id="Pfad_656" class="st1" d="M26.9633331,17.3046551c0-3.8000002-3.0666669-6.8666668-6.8666668-6.8666668h0c-3.8000002,0-6.8666668,3.0666666-6.8666668,6.8666668h0c0,5.1333332,6.8666668,12.6000004,6.8666668,12.6000004,0,0,6.8666668-7.4000003,6.8666668-12.6000004ZM17.8299996,17.3046551c0-1.2666664.9999997-2.2666667,2.2666667-2.2666667h0c1.2666664,0,2.266667.9999997,2.266667,2.2666667h0c0,1.2666664-1,2.266667-2.2666664,2.266667-1.2666677.0666663-2.2666674-1.0000006-2.2666674-2.266667h0Z"/>
      </g>
    </g>
  </g>
</svg>