<?xml version="1.0" encoding="UTF-8"?>
<svg id="Ebene_1" xmlns="http://www.w3.org/2000/svg" version="1.1" viewBox="0 0 183 80">
  <!-- Generator: Adobe Illustrator 29.7.1, SVG Export Plug-In . SVG Version: 2.1.1 Build 8)  -->
  <defs>
    <style>
      .st0 {
        fill: #fff;
      }

      .st1 {
        fill: #1a3153;
      }
    </style>
  </defs>
  <polygon class="st1" points="34.792244 .0000002 .1508134 20.00025 .1508134 59.9997484 34.792244 80.0000002 69.4336777 59.9997484 69.4336777 20.00025 34.792244 .0000002"/>
  <polygon class="st0" points="59.7335587 25.6003191 59.7335587 54.4006769 34.792244 68.8008577 9.850935 54.4006769 9.8499355 25.6003191 34.792244 11.2001449 34.792244 16.0002005 14.0069857 28.0003492 14.0069857 52.0006487 34.792244 64.0008013 55.5775032 52.0006487 55.5775032 32.8454134 34.792244 44.8455622 34.792244 39.9855005 59.7335587 25.6003191"/>
  <g>
    <path class="st1" d="M177.953125,60.0864527c3.0250244,0,4.8960571-1.5930214,4.8960571-3.8800507,0-5.1260643-7.16008-2.6320343-7.16008-5.3110657,0-.9010124.855011-1.5480194,2.2170258-1.5480194,1.4550171,0,2.2410278.6700096,2.3790283,1.6860199h2.2170258c-.1849976-2.3090286-2.0780334-3.6250458-4.5030518-3.6250458-2.7710419,0-4.5730591,1.5010185-4.5730591,3.5330467,0,4.9190636,7.0670776,2.4250298,7.0670776,5.3810692,0,1.0620117-.878006,1.7780228-2.4710236,1.7780228-1.5700226,0-2.4710236-.647007-2.6330261-1.8940239h-2.2860413c.1620026,2.3330307,1.7780151,3.8800507,4.8500671,3.8800507M161.3939209,52.6503565c.1850128-1.8940239,1.7090149-3.210041,3.5570526-3.210041,1.8700256,0,3.3480377,1.1780128,3.5100403,3.2100372,0,0-7.0670929,0-7.0670929.0000038ZM164.9969788,60.0864527c2.9790192,0,5.1270599-1.6160202,5.7500763-3.9490471h-2.3550415c-.4850006,1.1780128-1.8020172,1.9170227-3.3260345,1.9170227-2.217041,0-3.6260529-1.4320183-3.7180481-3.5330467h9.5151215v-.9010086c0-3.4410439-2.1480408-6.2120781-5.9120789-6.2120781-3.44104,0-6.0280762,2.5400314-6.0280762,6.3740807,0,3.6250458,2.4480286,6.304081,6.0740814,6.304081M150.1937866,59.7864458h2.4250336v-5.9580765c0-2.2400284,1.178009-3.7880478,3.2330475-3.7880478h1.132019v-2.3550301h-1.0630188c-1.7090149,0-2.8630371,1.1540146-3.2330475,2.1240273h-.1620026v-2.1010246h-2.3320312v12.0781517ZM140.5866699,60.0864527c1.8010101,0,3.0480347-.9240112,3.5330353-1.9170227h.1620026v1.6170197h2.3560333v-12.0781479h-2.4250336v7.0900879c0,1.7550201-1.2470093,3.0480385-2.9330292,3.0480385-1.5240173,0-2.7020264-1.1080132-2.7020264-2.8170357v-7.3210869h-2.4250336v7.7590942c0,2.6100311,1.6860199,4.6190567,4.4340668,4.6190567M131.3255463,59.7864458h2.010025v-2.0550232h-1.6400146c-1.2700195,0-1.7550201-.6930084-1.7550201-1.8480263v-6.1890755h3.5100555v-1.9860229h-3.5100555v-3.418045h-2.2870178v2.6560364c0,.4850082-.3000031.7850113-.716011.7850113h-1.5930176v1.9630241h2.1710281v6.2580757c0,2.5180321,1.4320068,3.8340492,3.8100433,3.8340492M112.3653107,59.7864458h2.4250336v-7.0440865c0-1.755024,1.2470093-3.0710411,2.9330368-3.0710411,1.5240097,0,2.7020264,1.1310158,2.7020264,2.8170357v7.2980881h2.4250336v-7.7600975c0-2.6090317-1.6860199-4.6180573-4.4340515-4.6180573-1.8010254,0-3.0490417.9230118-3.53405,1.9160233h-.1609955v-1.6160164h-2.3560333v12.0781517ZM99.9641571,52.6503565c.1849976-1.8940239,1.7090225-3.210041,3.5560455-3.210041,1.8710251,0,3.3490448,1.1780128,3.5110474,3.2100372,0,0-7.0670929,0-7.0670929.0000038ZM103.5671997,60.0864527c2.9790421,0,5.1260681-1.6160202,5.7500687-3.9490471h-2.3560257c-.4850082,1.1780128-1.8010254,1.9170227-3.3250427,1.9170227-2.2170258,0-3.6260452-1.4320183-3.7180405-3.5330467h9.514122v-.9010086c0-3.4410439-2.1470337-6.2120781-5.9120789-6.2120781-3.4410477,0-6.0270767,2.5400314-6.0270767,6.3740807,0,3.6250458,2.4480286,6.304081,6.0740738,6.304081M88.6250153,59.7864458h2.7480316l6.0740814-16.1661987h-2.7710419l-4.6190567,13.1181641h-.1389999l-4.549057-13.1181641h-2.7020264s5.9580765,16.1661987,5.9580688,16.1661987Z"/>
    <path class="st1" d="M150.8633881,36.2304537h2.4250336v-7.0440865c0-1.755024,1.2470093-3.0710373,2.9330292-3.0710373,1.5240173,0,2.7020416,1.1310101,2.7020416,2.8170319v7.2980919h2.4250183v-7.7600956c0-2.6090336-1.6860046-4.6190567-4.4340515-4.6190567-1.8010254,0-3.0490417.9240112-3.5340576,1.9170246h-.1609955v-1.6160221h-2.3560333v12.0781498h.0000153ZM138.4622345,29.0943663c.1849976-1.8940239,1.7090149-3.210043,3.5560455-3.210043,1.8710327,0,3.3490448,1.1770172,3.5110474,3.210043h-7.0670929ZM142.0652924,36.5304567c2.9790192,0,5.1260529-1.6170158,5.7500763-3.9490471h-2.3560333c-.4850006,1.1780128-1.8010254,1.9170227-3.3250427,1.9170227-2.217041,0-3.6260529-1.4320183-3.7180481-3.5340443h9.5141144v-.900013c0-3.4410419-2.1470337-6.2130756-5.9120789-6.2130756-3.44104,0-6.0270691,2.5410328-6.0270691,6.3740807,0,3.6260452,2.4480286,6.3050766,6.0740814,6.3050766M130.9331512,36.2304537h2.4250336v-12.0781498h-2.4250336v12.0781498ZM132.1571655,22.2582781c.9470062,0,1.6170197-.6240082,1.6170197-1.54702,0-.8780098-.6700287-1.5250168-1.6170197-1.5250168-.9230194,0-1.5930176.647007-1.5930176,1.5250168,0,.9230118.6700134,1.54702,1.5930176,1.54702M127.2841034,36.2304537h.9940186v-2.1480255h-.5090103c-.6000061,0-.9230118-.3460045-.9230118-.9930115v-14.1801777h-2.4250336v14.3191776c0,1.8930244,1.0390167,3.002037,2.8630371,3.002037M120.6800232,36.2304537h.9930115v-2.1480255h-.5080032c-.6010132,0-.9240189-.3460045-.9240189-.9930115v-14.1801777h-2.4250259v14.3191776c0,1.8930244,1.0390091,3.002037,2.8640366,3.002037M108.2548599,34.3364298c-2.2170334,0-3.7410431-1.6170197-3.7410431-4.1340542,0-2.4250298,1.5240097-4.1340504,3.7180405-4.1340504,2.1250229,0,3.7410507,1.5250168,3.7410507,4.1340504,0,2.2870312-1.40802,4.1340542-3.7180481,4.1340542M107.9088593,36.5304567c2.4020309,0,3.5790482-1.5470161,3.9030457-2.0090256h.1380005v1.7090225h2.3790283v-12.0781498h-2.4250259v1.755022h-.1620026c-.3920059-.6240082-1.6390228-2.0560265-3.9490433-2.0560265-3.371048,0-5.7500687,2.6330318-5.7500687,6.3740807,0,3.7420425,2.4020309,6.3050766,5.8660736,6.3050766M91.7196579,36.5304567c4.6190567,0,8.2911072-3.1180382,8.1980972-8.9141083h-8.5911102v2.1010246h5.8200684c-.1849976,2.6330376-2.4480286,4.48106-5.404068,4.48106-3.4870453,0-5.8430786-2.5640354-5.8430786-6.0510788,0-3.44104,2.3330307-6.0280762,5.8200836-6.0280762,2.4710236,0,4.2260513,1.2710152,4.98806,3.1180382h2.7480392c-.969017-3.1410389-3.833046-5.4730682-7.7360992-5.4730682-4.8960648,0-8.4061127,3.6260452-8.4061127,8.3831043,0,4.8030605,3.5330505,8.3831043,8.4061127,8.3831043"/>
  </g>
</svg>